<svg id="quality-2" xmlns="http://www.w3.org/2000/svg" width="14.741" height="14.744" viewBox="0 0 14.741 14.744">
  <path id="Path_10293" data-name="Path 10293" d="M241.381,2.592a.432.432,0,0,1-.432-.432V.432a.432.432,0,1,1,.864,0V2.16A.432.432,0,0,1,241.381,2.592Z" transform="translate(-234.012)" fill="#e5e5e5"/>
  <path id="Path_10294" data-name="Path 10294" d="M256.381,2.16V.432A.432.432,0,0,0,255.949,0V2.592A.432.432,0,0,0,256.381,2.16Z" transform="translate(-248.58)" fill="#d9d9d9"/>
  <path id="Path_10295" data-name="Path 10295" d="M131.154,40.359l-1.222-.79a.432.432,0,1,1,.469-.726l1.222.79a.432.432,0,0,1-.469.726Z" transform="translate(-126 -37.658)" fill="#e5e5e5"/>
  <path id="Path_10296" data-name="Path 10296" d="M92.825,121h-9.5a.425.425,0,0,0-.226.07l.24,2.873,2.146.945,2.173-1.107,3.01,1.107,2.16-1.012.226-2.805A.425.425,0,0,0,92.825,121Z" transform="translate(-80.704 -117.515)" fill="#fea832"/>
  <path id="Path_10297" data-name="Path 10297" d="M258.541,124.888l2.16-1.012.226-2.805a.425.425,0,0,0-.226-.07h-4.752v2.935Z" transform="translate(-248.58 -117.515)" fill="#fe9923"/>
  <path id="Path_10298" data-name="Path 10298" d="M309.8,40.223a.432.432,0,0,1,.128-.6l1.222-.79a.432.432,0,1,1,.469.726l-1.222.79A.432.432,0,0,1,309.8,40.223Z" transform="translate(-300.817 -37.65)" fill="#d9d9d9"/>
  <path id="Path_10299" data-name="Path 10299" d="M14.746,124.659,12.537,121.2a.428.428,0,0,0-.14-.133l-2.386,3.818L7.42,121l-2.592,3.888L2.442,121.07a.429.429,0,0,0-.14.133L.1,124.659a.406.406,0,0,0-.053.229l2.132,1.3h9.9l2.711-1.3A.431.431,0,0,0,14.746,124.659Z" transform="translate(-0.05 -117.515)" fill="#ffd400"/>
  <path id="Path_10300" data-name="Path 10300" d="M260.611,126.184l2.711-1.3a.431.431,0,0,0-.045-.229l-2.209-3.456a.428.428,0,0,0-.14-.133l-2.386,3.818L255.949,121v5.184Z" transform="translate(-248.58 -117.515)" fill="#fdbf00"/>
  <path id="Path_10301" data-name="Path 10301" d="M153.833,256h-5.184l-.513,2.916,3.1,4.456,2.9-3.862Z" transform="translate(-143.871 -248.628)" fill="#fea832"/>
  <path id="Path_10302" data-name="Path 10302" d="M258.541,256h-2.592v7.372l2.9-3.862Z" transform="translate(-248.58 -248.628)" fill="#fe9923"/>
  <path id="Path_10303" data-name="Path 10303" d="M.057,256a.458.458,0,0,0,.113.305l6.95,6.94a.431.431,0,0,0,.305.127L4.834,256Z" transform="translate(-0.057 -248.628)" fill="#fe8821"/>
  <path id="Path_10304" data-name="Path 10304" d="M258.541,256l-2.592,7.372a.43.43,0,0,0,.305-.127l6.961-6.94a.432.432,0,0,0,.106-.305Z" transform="translate(-248.58 -248.628)" fill="#e5741a"/>
</svg>
